<svg width="20" height="24" viewBox="0 0 20 24" fill="none" xmlns="http://www.w3.org/2000/svg">
<path d="M3.5 24H19C19.2652 24 19.5196 23.8946 19.7071 23.7071C19.8946 23.5196 20 23.2652 20 23V1C20 0.734784 19.8946 0.48043 19.7071 0.292893C19.5196 0.105357 19.2652 0 19 0L3.5 0C2.57174 0 1.6815 0.368749 1.02513 1.02513C0.368749 1.6815 0 2.57174 0 3.5V20.5C0 21.4283 0.368749 22.3185 1.02513 22.9749C1.6815 23.6313 2.57174 24 3.5 24ZM18 22H3.5C3.10218 22 2.72064 21.842 2.43934 21.5607C2.15804 21.2794 2 20.8978 2 20.5C2 20.1022 2.15804 19.7206 2.43934 19.4393C2.72064 19.158 3.10218 19 3.5 19H12V20C11.9988 20.1986 12.0569 20.3931 12.1667 20.5586C12.2765 20.7241 12.4331 20.8532 12.6165 20.9294C12.8 21.0055 13.0019 21.0254 13.1967 20.9863C13.3914 20.9472 13.5701 20.851 13.71 20.71L14 20.42L14.29 20.71C14.4299 20.851 14.6086 20.9472 14.8033 20.9863C14.9981 21.0254 15.2 21.0055 15.3835 20.9294C15.5669 20.8532 15.7235 20.7241 15.8333 20.5586C15.9431 20.3931 16.0012 20.1986 16 20V19H18V22ZM3.5 2H18V17H3.5C2.98005 17.0025 2.46735 17.1221 2 17.35V3.5C2 3.10218 2.15804 2.72064 2.43934 2.43934C2.72064 2.15804 3.10218 2 3.5 2Z" fill="#EAC060"/>
<path d="M5.82009 11.2301V12.6801C5.82009 12.9453 5.92545 13.1997 6.11298 13.3872C6.30052 13.5747 6.55487 13.6801 6.82009 13.6801H8.27009L9.27009 14.6801C9.45745 14.8663 9.7109 14.9709 9.97509 14.9709C10.2393 14.9709 10.4927 14.8663 10.6801 14.6801L11.6801 13.6801H13.1301C13.3953 13.6801 13.6497 13.5747 13.8372 13.3872C14.0247 13.1997 14.1301 12.9453 14.1301 12.6801V11.2301L15.1301 10.2301C15.3163 10.0427 15.4209 9.78928 15.4209 9.52509C15.4209 9.2609 15.3163 9.00745 15.1301 8.82009L14.1301 7.82009V6.32009C14.1301 6.05487 14.0247 5.80052 13.8372 5.61298C13.6497 5.42545 13.3953 5.32009 13.1301 5.32009H11.7301L10.7301 4.32009C10.5427 4.13384 10.2893 4.0293 10.0251 4.0293C9.7609 4.0293 9.50745 4.13384 9.32009 4.32009L8.32009 5.32009H6.82009C6.55487 5.32009 6.30052 5.42545 6.11298 5.61298C5.92545 5.80052 5.82009 6.05487 5.82009 6.32009V7.77009L4.82009 8.77009C4.63384 8.95745 4.5293 9.2109 4.5293 9.47509C4.5293 9.73928 4.63384 9.99273 4.82009 10.1801L5.82009 11.2301ZM7.53009 8.89009C7.62277 8.79665 7.6961 8.68583 7.74586 8.564C7.79563 8.44216 7.82085 8.3117 7.82009 8.18009V7.32009H8.68009C8.81382 7.31695 8.94557 7.28701 9.06752 7.23205C9.18948 7.17708 9.29916 7.09821 9.39009 7.00009L10.0001 6.41009L10.6101 7.02009C10.7035 7.11277 10.8143 7.1861 10.9362 7.23586C11.058 7.28563 11.1885 7.31085 11.3201 7.31009H12.1801V8.17009C12.1793 8.3017 12.2046 8.43216 12.2543 8.554C12.3041 8.67583 12.3774 8.78665 12.4701 8.88009L13.0801 9.49009L12.4701 10.1001C12.3774 10.1935 12.3041 10.3043 12.2543 10.4262C12.2046 10.548 12.1793 10.6785 12.1801 10.8101V11.6701H11.3201C11.1885 11.6693 11.058 11.6946 10.9362 11.7443C10.8143 11.7941 10.7035 11.8674 10.6101 11.9601L10.0001 12.5701L9.39009 12.0001C9.29665 11.9074 9.18583 11.8341 9.064 11.7843C8.94216 11.7346 8.8117 11.7093 8.68009 11.7101H7.82009V10.8501C7.82085 10.7185 7.79563 10.588 7.74586 10.4662C7.6961 10.3443 7.62277 10.2335 7.53009 10.1401L6.91009 9.50009L7.53009 8.89009Z" fill="#EAC060"/>
</svg>
