<svg width="28" height="24" viewBox="0 0 28 24" fill="none" xmlns="http://www.w3.org/2000/svg">
<path d="M11 9C11 8.73478 11.1054 8.48043 11.2929 8.29289C11.4804 8.10536 11.7348 8 12 8H20C20.2652 8 20.5196 8.10536 20.7071 8.29289C20.8946 8.48043 21 8.73478 21 9C21 9.26522 20.8946 9.51957 20.7071 9.70711C20.5196 9.89464 20.2652 10 20 10H12C11.7348 10 11.4804 9.89464 11.2929 9.70711C11.1054 9.51957 11 9.26522 11 9ZM12 14H20C20.2652 14 20.5196 13.8946 20.7071 13.7071C20.8946 13.5196 21 13.2652 21 13C21 12.7348 20.8946 12.4804 20.7071 12.2929C20.5196 12.1054 20.2652 12 20 12H12C11.7348 12 11.4804 12.1054 11.2929 12.2929C11.1054 12.4804 11 12.7348 11 13C11 13.2652 11.1054 13.5196 11.2929 13.7071C11.4804 13.8946 11.7348 14 12 14ZM28 20C28 21.0609 27.5786 22.0783 26.8284 22.8284C26.0783 23.5786 25.0609 24 24 24H10C8.93913 24 7.92172 23.5786 7.17157 22.8284C6.42143 22.0783 6 21.0609 6 20V4C6 3.46957 5.78929 2.96086 5.41421 2.58579C5.03914 2.21071 4.53043 2 4 2C3.46957 2 2.96086 2.21071 2.58579 2.58579C2.21071 2.96086 2 3.46957 2 4C2 4.7175 2.60375 5.2025 2.61 5.2075C2.7755 5.33486 2.89698 5.51084 2.95738 5.71075C3.01779 5.91066 3.01409 6.12446 2.94681 6.32216C2.87953 6.51986 2.75205 6.69154 2.58224 6.81311C2.41244 6.93467 2.20883 7.00003 2 7C1.78375 7.00037 1.57337 6.92966 1.40125 6.79875C1.25625 6.6925 0 5.70125 0 4C0 2.93913 0.421427 1.92172 1.17157 1.17157C1.92172 0.421427 2.93913 0 4 0H21C22.0609 0 23.0783 0.421427 23.8284 1.17157C24.5786 1.92172 25 2.93913 25 4V17H26C26.2164 17 26.4269 17.0702 26.6 17.2C26.75 17.3075 28 18.2987 28 20ZM11.0325 17.685C11.1008 17.4833 11.2312 17.3084 11.405 17.1854C11.5788 17.0623 11.7871 16.9974 12 17H23V4C23 3.46957 22.7893 2.96086 22.4142 2.58579C22.0391 2.21071 21.5304 2 21 2H7.46125C7.81492 2.60713 8.00086 3.29737 8 4V20C8 20.5304 8.21071 21.0391 8.58579 21.4142C8.96086 21.7893 9.46957 22 10 22C10.5304 22 11.0391 21.7893 11.4142 21.4142C11.7893 21.0391 12 20.5304 12 20C12 19.2825 11.3963 18.7975 11.39 18.7925C11.2196 18.6706 11.0928 18.4972 11.0285 18.2977C10.9641 18.0983 10.9655 17.8835 11.0325 17.685ZM26 20C25.9875 19.6295 25.8445 19.2753 25.5963 19H13.8462C13.9468 19.3238 13.9978 19.6609 13.9975 20C13.9985 20.7023 13.8134 21.3924 13.4613 22H24C24.5304 22 25.0391 21.7893 25.4142 21.4142C25.7893 21.0391 26 20.5304 26 20Z" fill="#EAC060"/>
</svg>
