<svg width="17" height="13" viewBox="0 0 17 13" fill="none" xmlns="http://www.w3.org/2000/svg">
<path d="M0.653992 12.528V8.41C0.653992 6.82466 0.905325 5.35533 1.40799 4.002C1.94933 2.64867 2.85799 1.31467 4.13399 0L6.39599 1.682C5.54532 2.61 4.92666 3.48 4.53999 4.292C4.15333 5.06533 3.92133 5.83867 3.84399 6.612H6.56999V12.528H0.653992ZM10.282 12.528V8.41C10.282 6.82466 10.5333 5.35533 11.036 4.002C11.5773 2.64867 12.486 1.31467 13.762 0L16.024 1.682C15.1733 2.61 14.5547 3.48 14.168 4.292C13.7813 5.06533 13.5493 5.83867 13.472 6.612H16.198V12.528H10.282Z" fill="#EAC060"/>
</svg>
